<svg width="180" height="180" viewBox="0 0 180 180" fill="none" xmlns="http://www.w3.org/2000/svg">
  <!-- Background with rounded corners for iOS -->
  <defs>
    <linearGradient id="bgGradient" x1="0%" y1="0%" x2="100%" y2="100%">
      <stop offset="0%" style="stop-color:hsl(262, 65%, 45%);stop-opacity:1" />
      <stop offset="50%" style="stop-color:hsl(266, 70%, 50%);stop-opacity:1" />
      <stop offset="100%" style="stop-color:hsl(270, 75%, 65%);stop-opacity:1" />
    </linearGradient>
    <linearGradient id="symbolGradient" x1="0%" y1="0%" x2="100%" y2="100%">
      <stop offset="0%" style="stop-color:#ffffff;stop-opacity:1" />
      <stop offset="100%" style="stop-color:#f8fafc;stop-opacity:0.95" />
    </linearGradient>
    <filter id="shadow" x="-20%" y="-20%" width="140%" height="140%">
      <feDropShadow dx="2" dy="4" stdDeviation="3" flood-color="hsl(262, 65%, 25%)" flood-opacity="0.3"/>
    </filter>
  </defs>
  
  <!-- Background rounded rectangle -->
  <rect x="10" y="10" width="160" height="160" rx="32" ry="32" fill="url(#bgGradient)" stroke="hsl(262, 65%, 35%)" stroke-width="2"/>
  
  <!-- Mathematical radical symbol (√) with enhanced details -->
  <g fill="url(#symbolGradient)" stroke="none" filter="url(#shadow)">
    <!-- Main radical hook -->
    <path d="M35 110 L55 130 L75 85 L75 45" stroke="url(#symbolGradient)" stroke-width="8" stroke-linecap="round" stroke-linejoin="round" fill="none"/>
    <!-- Horizontal line over the expression -->
    <path d="M75 45 L145 45" stroke="url(#symbolGradient)" stroke-width="8" stroke-linecap="round" fill="none"/>
    
    <!-- Mathematical expression under the radical -->
    <!-- Variable 'x' -->
    <path d="M95 75 L105 85 M105 75 L95 85" stroke="url(#symbolGradient)" stroke-width="4" stroke-linecap="round"/>
    <!-- Plus sign -->
    <path d="M115 80 L125 80 M120 75 L120 85" stroke="url(#symbolGradient)" stroke-width="4" stroke-linecap="round"/>
    <!-- Number '1' -->
    <path d="M135 75 L135 85 M132 78 L135 75" stroke="url(#symbolGradient)" stroke-width="4" stroke-linecap="round"/>
  </g>
  
  <!-- Subtle inner glow -->
  <rect x="10" y="10" width="160" height="160" rx="32" ry="32" fill="none" stroke="url(#symbolGradient)" stroke-width="1" opacity="0.3"/>
  
  <!-- Outer border for definition -->
  <rect x="10" y="10" width="160" height="160" rx="32" ry="32" fill="none" stroke="hsl(262, 65%, 25%)" stroke-width="1" opacity="0.5"/>
</svg>